{
  "accessors": [
    {
      "bufferView": 2,
      "componentType": 5126,
      "count": 33328,
      "max": [
        2.477992057800293,
        27.790300369262695,
        0.91417700052261353
      ],
      "min": [
        0.57944601774215698,
        26.128692626953125,
        -0.49505400657653809
      ],
      "type": "VEC3"
    },
    {
      "bufferView": 2,
      "byteOffset": 399936,
      "componentType": 5126,
      "count": 33328,
      "max": [
        0.9999765157699585,
        0.99984997510910034,
        0.99987548589706421
      ],
      "min": [
        -0.99999547004699707,
        -0.99996590614318848,
        -0.99999821186065674
      ],
      "type": "VEC3"
    },
    {
      "bufferView": 3,
      "componentType": 5126,
      "count": 33328,
      "max": [
        0.99973434209823608,
        0.99986255168914795,
        0.99822324514389038,
        1
      ],
      "min": [
        -0.99997711181640625,
        -0.99999880790710449,
        -0.9998708963394165,
        -1
      ],
      "type": "VEC4"
    },
    {
      "bufferView": 1,
      "componentType": 5126,
      "count": 33328,
      "max": [
        0.96632498502731323,
        0.99998301267623901
      ],
      "min": [
        5.199999941396527e-05,
        4.9999998736893758e-06
      ],
      "type": "VEC2"
    },
    {
      "bufferView": 0,
      "componentType": 5125,
      "count": 192000,
      "max": [
        33327
      ],
      "min": [
        0
      ],
      "type": "SCALAR"
    }
  ],
  "asset": {
    "extras": {
      "author": "Minneapolis Institute of Art (https://sketchfab.com/artsmia)",
      "license": "CC-BY-NC-SA-4.0 (http://creativecommons.org/licenses/by-nc-sa/4.0/)",
      "source": "https://sketchfab.com/models/4c379e58642c471fad32406fe90c7cc4",
      "title": "Netsuke - Snake curled around a turtle"
    },
    "generator": "Sketchfab-4.12.0",
    "version": "2.0"
  },
  "bufferViews": [
    {
      "buffer": 0,
      "byteLength": 768000,
      "byteOffset": 0,
      "name": "floatBufferViews",
      "target": 34963
    },
    {
      "buffer": 0,
      "byteLength": 266624,
      "byteOffset": 768000,
      "byteStride": 8,
      "name": "floatBufferViews",
      "target": 34962
    },
    {
      "buffer": 0,
      "byteLength": 799872,
      "byteOffset": 1034624,
      "byteStride": 12,
      "name": "floatBufferViews",
      "target": 34962
    },
    {
      "buffer": 0,
      "byteLength": 533248,
      "byteOffset": 1834496,
      "byteStride": 16,
      "name": "floatBufferViews",
      "target": 34962
    }
  ],
  "buffers": [
    {
      "byteLength": 2367744,
      "uri": "scene.bin"
    }
  ],
  "images": [
    {
      "uri": "textures/190102_122704_202_64Kmesh_OBJ_metallicRoughness.png"
    },
    {
      "uri": "textures/190102_122704_202_64Kmesh_OBJ_baseColor.jpeg"
    }
  ],
  "materials": [
    {
      "doubleSided": true,
      "emissiveFactor": [
        0,
        0,
        0
      ],
      "name": "190102_122704_202_64Kmesh_OBJ",
      "pbrMetallicRoughness": {
        "baseColorFactor": [
          1,
          1,
          1,
          1
        ],
        "baseColorTexture": {
          "index": 1,
          "texCoord": 0
        },
        "metallicFactor": 0,
        "metallicRoughnessTexture": {
          "index": 0,
          "texCoord": 0
        },
        "roughnessFactor": 1
      }
    }
  ],
  "meshes": [
    {
      "primitives": [
        {
          "attributes": {
            "NORMAL": 1,
            "POSITION": 0,
            "TANGENT": 2,
            "TEXCOORD_0": 3
          },
          "indices": 4,
          "material": 0,
          "mode": 4
        }
      ]
    }
  ],
  "nodes": [
    {
      "children": [
        1
      ],
      "name": "RootNode (gltf orientation matrix)",
      "rotation": [
        -0.70710678118654746,
        -0,
        -0,
        0.70710678118654757
      ]
    },
    {
      "children": [
        2
      ],
      "matrix": [
        0.99104702472686768,
        0,
        -0.13351310789585114,
        0,
        0.011846089735627174,
        0.99605607986450195,
        0.087931685149669647,
        0,
        0.13298654556274414,
        -0.088726043701171875,
        0.98713845014572144,
        0,
        -0.3335469663143158,
        0.12491998821496964,
        -2.1637952327728271,
        1
      ],
      "name": "RootNode (model correction matrix)"
    },
    {
      "children": [
        3
      ],
      "name": "190102_122704_202_64Kmesh_OBJ.obj.cleaner.materialmerger.gles"
    },
    {
      "mesh": 0,
      "name": ""
    }
  ],
  "samplers": [
    {
      "magFilter": 9729,
      "minFilter": 9987,
      "wrapS": 10497,
      "wrapT": 10497
    }
  ],
  "scene": 0,
  "scenes": [
    {
      "name": "OSG_Scene",
      "nodes": [
        0
      ]
    }
  ],
  "textures": [
    {
      "sampler": 0,
      "source": 0
    },
    {
      "sampler": 0,
      "source": 1
    }
  ]
}

